<?xml version="1.0" encoding="UTF-8"?>
<svg id="Layer_1" data-name="Layer 1" xmlns="http://www.w3.org/2000/svg" xmlns:xlink="http://www.w3.org/1999/xlink" viewBox="0 0 460.6 367.93">
  <defs>
    <style>
      .cls-1 {
        fill: url(#linear-gradient);
      }

      .cls-1, .cls-2, .cls-3 {
        stroke-width: 0px;
      }

      .cls-2 {
        fill: #f85a1d;
      }

      .cls-3 {
        fill: url(#linear-gradient-2);
      }
    </style>
    <linearGradient id="linear-gradient" x1="333.89" y1="250.22" x2="468.84" y2="344.71" gradientUnits="userSpaceOnUse">
      <stop offset="0" stop-color="#cc310d"/>
      <stop offset=".1" stop-color="#d93e12"/>
      <stop offset=".26" stop-color="#ea5019"/>
      <stop offset=".37" stop-color="#f1571c"/>
      <stop offset="1" stop-color="#f85a1d"/>
    </linearGradient>
    <linearGradient id="linear-gradient-2" x1="190.26" y1="19.36" x2="324.13" y2="113.1" gradientUnits="userSpaceOnUse">
      <stop offset="0" stop-color="#f85a1d"/>
      <stop offset=".63" stop-color="#f1571c"/>
      <stop offset=".74" stop-color="#ea5019"/>
      <stop offset=".9" stop-color="#d93e12"/>
      <stop offset="1" stop-color="#cc310d"/>
    </linearGradient>
  </defs>
  <path class="cls-2" d="M459.48,365.55l-.63-1.32-.17-.4-.85-1.85-.35-.75-.98-2.08-1.95-4.18-3.13-6.7-31.31-67.09-3.88-8.3-3.73-8.03-1.2-2.6-.03-.02c-.4-.88-.8-1.7-1.18-2.53l-.87-1.9c-.88-1.88-1.73-3.68-2.55-5.48l-1.1-2.35-2.1-4.48-1.98-4.2-1-2.2-1.48-3.15-.98-2.13-.77-1.65-.15-.3c-.2-.42-.4-.85-.6-1.25-.23-.5-.45-.97-.68-1.45l-.32-.75-1.88-4-19.93-42.79-48.14-103.15-.1-.22-17.66-37.91L289.03,0h-117.48c-5.98,12.8-12.25,26.31-18.78,40.34C104.76,143.32,43.61,274.38,0,367.93h96.3c39.44-84.55,94.73-203.13,134.01-287.28l3,6.48.93,1.98,30.53,65.52,1.8,3.85,1.98,4.18,40.71,87.4,13.78,29.53,22.46,48.14,18.73,40.21h96.35l-1.1-2.38Z"/>
  <path class="cls-2" d="M439.65,40.34l-36.36,77.92-.05.07-1.78,3.8c-6.68,14.3-13.78,29.43-20.93,44.86l-3.33,7.15-2.05,4.4-1.43,3.08-1.05,2.25-.1.18-.03.02v.02l-.25.58c-.73,1.5-1.43,3.03-2.13,4.53l-.92,2-.13.25-.53,1.12-.33.68v.03l-2.05,4.43-5.05,10.78-1.75,3.75-.58,1.28-7.78,16.66-.85,1.83-1.6,3.43-1.7,3.63-.55,1.15-.53,1.13-.5,1.1-.38.83-.17.37-1.2,2.53-.5,1.05-.45,1.02-.27.58c-.1.2-.18.38-.28.55l-.3.7h-151.24l40.71-87.4h55.32l39.01-84.17,17.71-38.14h96.35Z"/>
  <polygon class="cls-1" points="460.6 367.92 364.22 367.92 326.04 285.97 325.54 284.91 309.28 250.05 341.8 250.05 373.71 181.63 393.66 224.4 460.6 367.92"/>
  <polygon class="cls-3" points="325.5 78.26 286.1 162.69 268.54 162.69 193.31 0 289.03 0 317.68 61.5 325.5 78.26"/>
</svg>