<svg width="386" height="148" viewBox="0 0 386 148" fill="none" xmlns="http://www.w3.org/2000/svg">
<path d="M384.22 34.91C379.47 14.89 361.47 0 339.98 0H284.19V64.79L284.3 65.04H284.19V64.79L280.14 56.1L270.25 34.91L255.82 3.97L253.97 0H219.15L217.3 3.97L202.87 34.91L198.45 44.39L194.01 34.91L188.5 23.1L183.75 12.92L180.51 5.99L177.73 0H144.76L141.97 5.96L130.16 31.28L122.52 14.89L115.58 0H68.61L38.28 65.05L21.98 99.99L0 147.13H38.52L60.5 99.99L76.8 65.05L92.09 32.26L99.92 49.08L107.39 65.06H92.49L76.21 100H123.69L130.19 113.94L138.17 131.05L145.66 147.14H184.2L157.43 89.75L149.45 72.64L152.98 65.06L157.14 56.12L161.26 47.31L165.35 56.12L169.23 64.42L169.53 65.06L179.16 85.71L181.65 91.03L185.61 99.55L185.81 99.99H185.83L198.42 127.04L211.03 99.99H211.05L215.21 91.02L217.69 85.73V85.71L227.32 65.06L231.5 56.12L236.54 45.29L241.58 56.12L245.76 65.06L257.88 91.03L262.04 100H262.06L284.02 147.14H319.08V91.03H339.95C358.09 91.03 373.75 80.42 381.04 65.06C382.41 62.23 383.46 59.25 384.18 56.12C385.02 52.73 385.45 49.17 385.45 45.53C385.45 41.89 385.02 38.32 384.18 34.93L384.22 34.91ZM339.98 56.11H319.11V34.92H339.98C345.83 34.92 350.57 39.66 350.57 45.52C350.57 51.38 345.83 56.11 339.98 56.11Z" fill="#E5370E"/>
<path d="M184.19 147.13H145.65L130.38 114.36L130.18 113.93L123.68 99.99H136.68L149.44 72.63L157.42 89.73L184.19 147.13Z" fill="#E5370E"/>
<path d="M130.16 31.29L114.41 65.05H107.38L77.3 0H115.58L127.03 24.59L130.16 31.29Z" fill="#E5370E"/>
</svg>
