<?xml version="1.0" encoding="UTF-8"?>
<svg id="Layer_1" data-name="Layer 1" xmlns="http://www.w3.org/2000/svg" xmlns:xlink="http://www.w3.org/1999/xlink" viewBox="0 0 747.33 147.13">
  <defs>
    <style>
      .cls-1 {
        fill: url(#linear-gradient);
      }

      .cls-1, .cls-2, .cls-3, .cls-4 {
        stroke-width: 0px;
      }

      .cls-2 {
        fill: #5d121f;
      }

      .cls-3 {
        fill: url(#linear-gradient-2);
      }

      .cls-4 {
        fill: #e5370e;
      }
    </style>
    <linearGradient id="linear-gradient" x1="133.52" y1="100.06" x2="187.48" y2="137.84" gradientUnits="userSpaceOnUse">
      <stop offset="0" stop-color="#bf2b0d"/>
      <stop offset=".1" stop-color="#cc2f0d"/>
      <stop offset=".26" stop-color="#de350d"/>
      <stop offset=".37" stop-color="#e5370e"/>
      <stop offset="1" stop-color="#e5370e"/>
    </linearGradient>
    <linearGradient id="linear-gradient-2" x1="76.08" y1="7.74" x2="129.62" y2="45.22" gradientUnits="userSpaceOnUse">
      <stop offset="0" stop-color="#e5370e"/>
      <stop offset=".63" stop-color="#e5370e"/>
      <stop offset=".74" stop-color="#de350d"/>
      <stop offset=".9" stop-color="#cc2f0d"/>
      <stop offset="1" stop-color="#bf2b0d"/>
    </linearGradient>
  </defs>
  <g>
    <path class="cls-2" d="M411.51,36.91V.05h7.89v17.49l-3.48-2.49h20.97l-3.53,2.49V.05h7.89v36.86h-7.89v-17.7l3.53,2.49h-20.97l3.48-2.49v17.7h-7.89Z"/>
    <path class="cls-2" d="M466.74,37.74c-3.12,0-5.81-.57-8.07-1.71-2.27-1.14-4.02-2.78-5.27-4.91-1.25-2.13-1.87-4.63-1.87-7.5V0h7.89v23.62c0,2.39.63,4.23,1.89,5.53,1.26,1.3,3.07,1.95,5.42,1.95s4.15-.65,5.4-1.95c1.25-1.3,1.87-3.14,1.87-5.53V0h7.89v23.62c0,2.87-.62,5.37-1.84,7.5-1.23,2.13-2.98,3.76-5.27,4.91-2.28,1.14-4.97,1.71-8.05,1.71Z"/>
    <path class="cls-2" d="M492.18,36.91V.05h10.54l9.4,26.84L521.46.05h10.54v36.86h-7.89V13.03l-8.67,23.78h-6.75l-8.62-23.78v23.88h-7.89Z"/>
    <path class="cls-2" d="M538.9,36.91L552.19.05h9.34l13.29,36.86h-8.2l-2.7-7.84h-14.17l-2.7,7.84h-8.15ZM551.98,22.58h9.76l-4.88-14.22-4.88,14.22Z"/>
    <path class="cls-2" d="M580.9,36.91V.05h8.72l14.64,25.44V.05h7.89v36.86h-8.83l-14.53-24.55v24.55h-7.89Z"/>
    <path class="cls-2" d="M427.14,92.43c-3.36,0-6.34-.76-8.95-2.28-2.61-1.52-4.65-3.72-6.13-6.59-1.47-2.87-2.21-6.32-2.21-10.33s.71-7.31,2.13-10.2c1.42-2.89,3.44-5.13,6.07-6.72,2.63-1.59,5.71-2.39,9.24-2.39,4.81,0,8.56,1.19,11.24,3.56,2.68,2.37,4.4,5.75,5.17,10.15l-8.2.31c-.41-2.32-1.32-4.13-2.7-5.43-1.38-1.3-3.22-1.95-5.5-1.95-1.97,0-3.65.52-5.04,1.56-1.39,1.04-2.44,2.51-3.17,4.41-.73,1.9-1.09,4.14-1.09,6.7s.37,4.84,1.12,6.72c.74,1.89,1.81,3.33,3.19,4.33,1.38,1,3.03,1.51,4.93,1.51,2.49,0,4.42-.7,5.79-2.1,1.37-1.4,2.22-3.35,2.57-5.84l8.25.31c-.49,3.01-1.44,5.57-2.86,7.68-1.42,2.11-3.28,3.74-5.58,4.88-2.3,1.14-5.06,1.71-8.28,1.71Z"/>
    <path class="cls-2" d="M447.85,91.6l13.29-36.86h9.34l13.29,36.86h-8.2l-2.7-7.84h-14.17l-2.7,7.84h-8.15ZM460.93,77.28h9.76l-4.88-14.22-4.88,14.22Z"/>
    <path class="cls-2" d="M489.85,91.6v-36.86h14.74c4.43,0,7.9,1.07,10.41,3.22,2.51,2.15,3.76,5.09,3.76,8.82,0,2.46-.56,4.59-1.69,6.41s-2.75,3.22-4.88,4.2-4.66,1.48-7.61,1.48h-6.85v12.72h-7.89ZM497.74,72.24h6.38c2.08,0,3.69-.46,4.83-1.38,1.14-.92,1.71-2.28,1.71-4.08s-.56-3.11-1.69-4.02c-1.13-.92-2.74-1.38-4.85-1.38h-6.38v10.85Z"/>
    <path class="cls-2" d="M526.29,91.6v-36.86h7.89v36.86h-7.89Z"/>
    <path class="cls-2" d="M550.74,91.6v-30.21h-11.01v-6.64h30.01v6.64h-11.06v30.21h-7.94Z"/>
    <path class="cls-2" d="M568.65,91.6l13.29-36.86h9.34l13.29,36.86h-8.2l-2.7-7.84h-14.17l-2.7,7.84h-8.15ZM581.73,77.28h9.76l-4.88-14.22-4.88,14.22Z"/>
    <path class="cls-2" d="M611.11,91.6v-36.86h7.89v34.73l-4.36-4.52h21.34v6.64h-24.87Z"/>
    <path class="cls-2" d="M427.14,147.13c-3.36,0-6.34-.76-8.95-2.28-2.61-1.52-4.65-3.72-6.13-6.59-1.47-2.87-2.21-6.32-2.21-10.33s.71-7.31,2.13-10.2c1.42-2.89,3.44-5.13,6.07-6.72,2.63-1.59,5.71-2.39,9.24-2.39,4.81,0,8.56,1.19,11.24,3.56,2.68,2.37,4.4,5.75,5.17,10.15l-8.2.31c-.41-2.32-1.32-4.13-2.7-5.43-1.38-1.3-3.22-1.95-5.5-1.95-1.97,0-3.65.52-5.04,1.56-1.39,1.04-2.44,2.51-3.17,4.41-.73,1.9-1.09,4.14-1.09,6.7s.37,4.84,1.12,6.72c.74,1.89,1.81,3.33,3.19,4.33,1.38,1,3.03,1.51,4.93,1.51,2.49,0,4.42-.7,5.79-2.1,1.37-1.4,2.22-3.35,2.57-5.84l8.25.31c-.49,3.01-1.44,5.57-2.86,7.68-1.42,2.11-3.28,3.74-5.58,4.88-2.3,1.14-5.06,1.71-8.28,1.71Z"/>
    <path class="cls-2" d="M468.51,147.13c-3.74,0-6.95-.78-9.63-2.34-2.68-1.56-4.74-3.77-6.18-6.64-1.44-2.87-2.15-6.28-2.15-10.23s.72-7.36,2.15-10.25c1.44-2.89,3.5-5.12,6.18-6.7,2.68-1.57,5.89-2.36,9.63-2.36s6.95.79,9.63,2.36c2.68,1.58,4.74,3.81,6.18,6.7,1.44,2.89,2.15,6.31,2.15,10.25s-.72,7.35-2.15,10.23c-1.44,2.87-3.5,5.09-6.18,6.64-2.68,1.56-5.89,2.34-9.63,2.34ZM468.46,140.48c2.08,0,3.85-.49,5.32-1.48,1.47-.99,2.6-2.41,3.37-4.28.78-1.87,1.17-4.14,1.17-6.8s-.39-4.94-1.17-6.83c-.78-1.89-1.9-3.33-3.37-4.33-1.47-1-3.24-1.51-5.32-1.51s-3.79.5-5.24,1.51c-1.45,1-2.57,2.45-3.35,4.33-.78,1.89-1.17,4.16-1.17,6.83s.39,4.93,1.17,6.8c.78,1.87,1.9,3.3,3.37,4.28,1.47.99,3.21,1.48,5.22,1.48Z"/>
    <path class="cls-2" d="M494.36,146.29v-36.86h7.89v34.73l-4.36-4.52h21.34v6.64h-24.87Z"/>
    <path class="cls-2" d="M526.29,146.29v-36.86h7.89v34.73l-4.36-4.52h21.34v6.64h-24.87Z"/>
    <path class="cls-2" d="M557.8,146.29v-36.86h25.64v6.64h-17.75v8.46h17.13v6.54h-17.13v8.56h18.17v6.64h-26.06Z"/>
    <path class="cls-2" d="M608.31,147.13c-3.36,0-6.34-.76-8.95-2.28-2.61-1.52-4.65-3.72-6.13-6.59-1.47-2.87-2.21-6.32-2.21-10.33s.71-7.31,2.13-10.2c1.42-2.89,3.44-5.13,6.07-6.72,2.63-1.59,5.71-2.39,9.24-2.39,4.81,0,8.56,1.19,11.24,3.56,2.68,2.37,4.4,5.75,5.17,10.15l-8.2.31c-.41-2.32-1.32-4.13-2.7-5.43-1.38-1.3-3.22-1.95-5.5-1.95-1.97,0-3.65.52-5.04,1.56-1.39,1.04-2.44,2.51-3.17,4.41-.73,1.9-1.09,4.14-1.09,6.7s.37,4.84,1.12,6.72c.74,1.89,1.81,3.33,3.19,4.33,1.38,1,3.03,1.51,4.93,1.51,2.49,0,4.42-.7,5.79-2.1,1.37-1.4,2.22-3.35,2.57-5.84l8.25.31c-.49,3.01-1.44,5.57-2.86,7.68-1.42,2.11-3.28,3.74-5.58,4.88-2.3,1.14-5.06,1.71-8.28,1.71Z"/>
    <path class="cls-2" d="M640.34,146.29v-30.21h-11.01v-6.64h30.01v6.64h-11.06v30.21h-7.94Z"/>
    <path class="cls-2" d="M665.36,146.29v-36.86h7.89v36.86h-7.89Z"/>
    <path class="cls-2" d="M692.61,146.29l-13.29-36.86h8.15l9.81,27.98,9.81-27.98h8.15l-13.34,36.86h-9.29Z"/>
    <path class="cls-2" d="M721.27,146.29v-36.86h25.64v6.64h-17.75v8.46h17.13v6.54h-17.13v8.56h18.17v6.64h-26.06Z"/>
  </g>
  <g>
    <path class="cls-4" d="M384.22,34.91C379.47,14.89,361.47,0,339.98,0h-55.79v64.79l.11.25h-.11v-.25l-4.05-8.69-9.89-21.19-14.43-30.94L253.97,0h-34.82l-1.85,3.97-14.43,30.94-4.42,9.48-4.44-9.48-5.51-11.81-4.75-10.18-3.24-6.93L177.73,0h-32.97l-2.79,5.96-11.81,25.32h0s-7.64-16.39-7.64-16.39L115.58,0h-46.97l-30.33,65.05-16.3,34.94L0,147.13h38.52l21.98-47.14,16.3-34.94,15.29-32.79,7.83,16.82,7.47,15.98h-14.9l-16.28,34.94h47.48l6.5,13.94,7.98,17.11h0s7.49,16.09,7.49,16.09h38.54l-26.77-57.39-7.98-17.11h0s3.53-7.58,3.53-7.58l4.16-8.94,4.12-8.81,4.09,8.81,3.88,8.3.3.64,9.63,20.65,2.49,5.32,3.96,8.52.2.44h.02l12.59,27.05,12.61-27.05h.02l4.16-8.97,2.48-5.29v-.02l9.63-20.65,4.18-8.94,5.04-10.83,5.04,10.83,4.18,8.94,12.12,25.97,4.16,8.97h.02l21.96,47.14h35.06v-56.11h20.87c18.14,0,33.8-10.61,41.09-25.97,1.37-2.83,2.42-5.81,3.14-8.94.84-3.39,1.27-6.95,1.27-10.59s-.43-7.21-1.27-10.6ZM339.98,56.11h-20.87v-21.19h20.87c5.85,0,10.59,4.74,10.59,10.6s-4.74,10.59-10.59,10.59Z"/>
    <polygon class="cls-1" points="184.19 147.13 145.65 147.13 130.38 114.36 130.18 113.93 123.68 99.99 136.68 99.99 149.44 72.63 157.42 89.73 184.19 147.13"/>
    <polygon class="cls-3" points="130.16 31.29 114.41 65.05 107.38 65.05 77.3 0 115.58 0 127.03 24.59 130.16 31.29"/>
  </g>
</svg>